<?xml version="1.0" encoding="UTF-8"?>
<svg xmlns="http://www.w3.org/2000/svg" xmlns:adj="http://www.nrvr.com/2012/adj" xmlns:xlink="http://www.w3.org/1999/xlink" onload="Adj.doDoc(function(){console.log('done')});" width="200" height="140">
	<script type="text/javascript" xlink:href="js/adj.js"/>
	<rect width="200" height="140" fill="linen"/>
	<g adj:command="horizontalList" adj:gap="2" adj:itemsH2V="1">
		<rect width="40" height="80" fill="#222" transform="translate(2,2)"/>
		<g transform="translate(44,2)">
			<adj:include src="adj-ex-080-include-to-include.svg"/>
			<g adj:command="horizontalList" adj:gap="1" adj:itemsH2V="1">
				<circle r="19" fill="#222" transform="translate(20,20)"/>
				<circle r="19" fill="#444" transform="translate(59,20)"/>
				<circle r="19" fill="#666" transform="translate(20,59)"/>
				<g adj:include="adj-ex-080-include-to-include-2.svg" transform="translate(40,40)">
					<g adj:command="circularList" adj:gap="0">
						<path d="M0,0 l10,0 -5,-9 z" fill="#222" transform="translate(12,23)"/>
						<path d="M0,0 l10,0 -5,-9 z" fill="#444" transform="translate(26,23)"/>
						<path d="M0,0 l10,0 -5,-9 z" fill="#666" transform="translate(16,36)"/>
						<path d="M0,0 l10,0 -5,-9 z" fill="#888" transform="translate(1,31)"/>
						<path d="M0,0 l10,0 -5,-9 z" fill="#aaa" transform="translate(1,14)"/>
						<path d="M0,0 l10,0 -5,-9 z" fill="#ccc" transform="translate(16,9)"/>
					</g>
				</g>
			</g>
		</g>
		<rect width="40" height="40" fill="#666" transform="translate(2,84)"/>
		<rect width="80" height="40" fill="#888" transform="translate(44,84)"/>
	</g>
</svg>
