<?xml version="1.0" encoding="UTF-8"?>
<svg xmlns="http://www.w3.org/2000/svg" xmlns:adj="http://www.nrvr.com/2012/adj" xmlns:xlink="http://www.w3.org/1999/xlink" onload="Adj.doDoc();" width="468" height="195">
	<script type="text/javascript" xlink:href="js/adj.js"/>
	<style type="text/css"><![CDATA[
	@font-face {
		font-family: Liberation Serif;
		src: local("Liberation Serif"), local("Liberation Serif Regular"), local("LiberationSerif-Regular"),
			url(fonts/Liberation/LiberationSerif-Regular.ttf);
		font-weight: normal;
		font-style: normal;
	}
	svg {
		font-family: "Liberation Serif","Times New Roman";
		font-size: 12px;
	}
	svg g rect {
		fill: gray;
		stroke: gray;
		stroke-width="1";
	}
	svg g g rect {
		fill: lightgray;
		stroke: gray;
		stroke-width="1";
	}
	svg g g g rect {
		fill: white;
		stroke: gray;
		stroke-width="1";
	}
	]]></style>
	<g adj:command="horizontalList">
		<rect adj:command="frameForParent" adj:inset="0.5" width="467" height="194" x="0.5" y="0.5"/>
		<text transform="translate(5,14)">outer one</text>
		<g adj:command="circularList" adj:gap="3" adj:rAlign="inside" adj:fromAngle="270" transform="translate(57,3)">
			<rect adj:command="frameForParent" adj:inset="0.5" width="219" height="188" x="0.5" y="0.5"/>
			<g adj:command="verticalList" adj:hAlign="center" transform="translate(75,84)">
				<text transform="translate(5,14)">intermediate</text>
				<text transform="translate(26,31)">one</text>
			</g>
			<g adj:command="verticalList" adj:hAlign="center" transform="translate(80,4)">
				<rect adj:command="frameForParent" adj:inset="0.5" width="59" height="36" x="0.5" y="0.5"/>
				<text transform="translate(5,14)">innermost</text>
				<text transform="translate(21,31)">one</text>
			</g>
			<g adj:command="verticalList" adj:hAlign="center" transform="translate(156,59)">
				<rect adj:command="frameForParent" adj:inset="0.5" width="59" height="36" x="0.5" y="0.5"/>
				<text transform="translate(5,14)">innermost</text>
				<text transform="translate(20,31)">two</text>
			</g>
			<g adj:command="verticalList" adj:hAlign="center" transform="translate(127,148)">
				<rect adj:command="frameForParent" adj:inset="0.5" width="59" height="36" x="0.5" y="0.5"/>
				<text transform="translate(5,14)">innermost</text>
				<text transform="translate(17,31)">three</text>
			</g>
			<g adj:command="verticalList" adj:hAlign="center" transform="translate(33,148)">
				<rect adj:command="frameForParent" adj:inset="0.5" width="59" height="36" x="0.5" y="0.5"/>
				<text transform="translate(5,14)">innermost</text>
				<text transform="translate(19,31)">four</text>
			</g>
			<g adj:command="verticalList" adj:hAlign="center" transform="translate(4,59)">
				<rect adj:command="frameForParent" adj:inset="0.5" width="59" height="36" x="0.5" y="0.5"/>
				<text transform="translate(5,14)">innermost</text>
				<text transform="translate(20,31)">five</text>
			</g>
		</g>
		<g adj:command="verticalTree" adj:gap="3" adj:middleGap="10" transform="translate(280,3)">
			<rect adj:command="frameForParent" adj:inset="0.5" width="184" height="79" x="0.5" y="0.5"/>
			<text adj:id="int2" transform="translate(51,14)">intermediate two</text>
			<g adj:id="inn6" adj:treeParent="int2" adj:command="verticalList" adj:hAlign="center" transform="translate(10,27)">
				<rect adj:command="frameForParent" adj:inset="0.5" width="75" height="19" x="0.5" y="0.5"/>
				<text transform="translate(5,14)">innermost six</text>
			</g>
			<g adj:treeParent="inn6" adj:command="verticalList" adj:hAlign="center" transform="translate(3,57)">
				<rect adj:command="frameForParent" adj:inset="0.5" width="89" height="19" x="0.5" y="0.5"/>
				<text transform="translate(5,14)">innermost seven</text>
			</g>
			<g adj:id="inn8" adj:treeParent="int2" adj:command="verticalList" adj:hAlign="center" transform="translate(96,27)">
				<rect adj:command="frameForParent" adj:inset="0.5" width="85" height="19" x="0.5" y="0.5"/>
				<text transform="translate(5,14)">innermost eight</text>
			</g>
			<g adj:treeParent="inn8" adj:command="verticalList" adj:hAlign="center" transform="translate(98,57)">
				<rect adj:command="frameForParent" adj:inset="0.5" width="82" height="19" x="0.5" y="0.5"/>
				<text transform="translate(5,14)">innermost nine</text>
			</g>
		</g>
	</g>
</svg>