<?xml version="1.0" encoding="UTF-8"?>
<svg xmlns="http://www.w3.org/2000/svg" xmlns:adj="http://www.nrvr.com/2012/adj" xmlns:xlink="http://www.w3.org/1999/xlink" onload="Adj.doSvg();" width="200" height="170">
	<script type="text/javascript" xlink:href="js/adj.js"/>
	<rect width="200" height="170" fill="linen"/>
	<g>
		<adj:rcGrid adj:explain="true"/>
		<g adj:rcGridPart="row">
			<circle r="10" fill="none" stroke="#000" transform="translate(13,13)"/>
			<circle r="4" fill="#222" transform="translate(36,13)"/>
			<circle r="6" fill="#444" transform="translate(55,13)"/>
			<circle r="8" fill="#666" transform="translate(80,13)"/>
			<circle r="10" fill="#888" transform="translate(114,13)"/>
		</g>
		<g adj:rcGridPart="column">
			<rect width="10" height="10" fill="#000" transform="translate(8,29)"/>
			<rect width="14" height="12" fill="#222" transform="translate(6,54)"/>
			<rect width="18" height="14" fill="#444" transform="translate(4,80)"/>
		</g>
		<g adj:rcGridPart="column">
			<rect width="14" height="12" fill="#000" transform="translate(29,28)"/>
			<rect width="18" height="14" fill="#222" transform="translate(27,53)"/>
			<rect width="22" height="16" fill="#444" transform="translate(25,79)"/>
		</g>
		<g adj:rcGridPart="column"/>
		<g adj:rcGridPart="column">
			<rect width="22" height="16" fill="#000" transform="translate(69,26)"/>
			<rect width="26" height="18" fill="#222" transform="translate(67,51)"/>
			<rect width="30" height="20" fill="#444" transform="translate(65,77)"/>
			<rect width="34" height="22" fill="#666" transform="translate(63,99)"/>
		</g>
		<g adj:rcGridPart="column">
			<rect width="26" height="18" fill="#000" transform="translate(101,25)"/>
			<rect width="30" height="30" fill="#222" transform="translate(99,45)"/>
		</g>
		<g adj:rcGridPart="row">
			<g transform="translate(13,133)"/>
			<circle r="4" fill="#222" transform="translate(36,133)"/>
			<circle r="6" fill="#444" transform="translate(55,133)"/>
			<circle r="8" fill="#666" transform="translate(80,133)"/>
			<circle r="10" fill="#888" transform="translate(114,133)"/>
		</g>
		<rect adj:explanation="true" x="0" y="0" width="132" height="146" fill="white" fill-opacity="0.1" stroke="blue" stroke-width="1" stroke-opacity="0.2"/>
		<rect adj:explanation="true" x="2" y="2" width="128" height="22" fill="blue" fill-opacity="0.1" stroke="blue" stroke-width="1" stroke-opacity="0.1"/>
		<rect adj:explanation="true" x="2" y="24" width="22" height="74" fill="blue" fill-opacity="0.1" stroke="blue" stroke-width="1" stroke-opacity="0.1"/>
		<rect adj:explanation="true" x="24" y="24" width="24" height="74" fill="blue" fill-opacity="0.1" stroke="blue" stroke-width="1" stroke-opacity="0.1"/>
		<rect adj:explanation="true" x="48" y="24" width="14" height="2" fill="blue" fill-opacity="0.1" stroke="blue" stroke-width="1" stroke-opacity="0.1"/>
		<rect adj:explanation="true" x="62" y="24" width="36" height="98" fill="blue" fill-opacity="0.1" stroke="blue" stroke-width="1" stroke-opacity="0.1"/>
		<rect adj:explanation="true" x="98" y="24" width="32" height="52" fill="blue" fill-opacity="0.1" stroke="blue" stroke-width="1" stroke-opacity="0.1"/>
		<rect adj:explanation="true" x="2" y="122" width="128" height="22" fill="blue" fill-opacity="0.1" stroke="blue" stroke-width="1" stroke-opacity="0.1"/>
	</g>
</svg>
