<?xml version="1.0" encoding="UTF-8"?>
<svg xmlns="http://www.w3.org/2000/svg" xmlns:adj="http://www.nrvr.com/2012/adj" xmlns:xlink="http://www.w3.org/1999/xlink" onload="Adj.doDoc();" width="460.18" height="192.879">
	<script type="text/javascript" xlink:href="js/adj.js"/>
	<style type="text/css"><![CDATA[
	@font-face {
		font-family: Liberation Serif;
		src: local("Liberation Serif"), local("Liberation Serif Regular"), local("LiberationSerif-Regular"),
			url(fonts/Liberation/LiberationSerif-Regular.ttf);
		font-weight: normal;
		font-style: normal;
	}
	svg {
		font-family: "Liberation Serif","Times New Roman";
		font-size: 12px;
	}
	svg g rect {
		fill: gray;
		stroke: gray;
		stroke-width="1";
	}
	svg g g rect {
		fill: lightgray;
		stroke: gray;
		stroke-width="1";
	}
	svg g g g rect {
		fill: white;
		stroke: gray;
		stroke-width="1";
	}
	]]></style>
	<g>
		<adj:horizontalList/>
		<rect width="459.18" height="191.879" x="0.5" y="0.5">
			<adj:frameForParent inset="0.5"/>
		</rect>
		<text transform="translate(5,15)">outer one</text>
		<g transform="translate(56,3)">
			<adj:circularList gap="3" rAlign="inside" fromAngle="270"/>
			<rect width="213.18" height="185.879" x="0.5" y="0.5">
				<adj:frameForParent inset="0.5"/>
			</rect>
			<g transform="translate(72.089,81.428)">
				<adj:verticalList hAlign="center"/>
				<text transform="translate(5,15)">intermediate</text>
				<text transform="translate(26,33)">one</text>
			</g>
			<g transform="translate(77.589,3)">
				<adj:verticalList hAlign="center"/>
				<rect width="58" height="38" x="0.5" y="0.5">
					<adj:frameForParent inset="0.5"/>
				</rect>
				<text transform="translate(5,15)">innermost</text>
				<text transform="translate(21,33)">one</text>
			</g>
			<g transform="translate(152.179,57.192)">
				<adj:verticalList hAlign="center"/>
				<rect width="58" height="38" x="0.5" y="0.5">
					<adj:frameForParent inset="0.5"/>
				</rect>
				<text transform="translate(5,15)">innermost</text>
				<text transform="translate(20,33)">two</text>
			</g>
			<g transform="translate(123.688,144.878)">
				<adj:verticalList hAlign="center"/>
				<rect width="58" height="38" x="0.5" y="0.5">
					<adj:frameForParent inset="0.5"/>
				</rect>
				<text transform="translate(5,15)">innermost</text>
				<text transform="translate(17,33)">three</text>
			</g>
			<g transform="translate(31.491,144.878)">
				<adj:verticalList hAlign="center"/>
				<rect width="58" height="38" x="0.5" y="0.5">
					<adj:frameForParent inset="0.5"/>
				</rect>
				<text transform="translate(5,15)">innermost</text>
				<text transform="translate(19,33)">four</text>
			</g>
			<g transform="translate(3,57.192)">
				<adj:verticalList hAlign="center"/>
				<rect width="58" height="38" x="0.5" y="0.5">
					<adj:frameForParent inset="0.5"/>
				</rect>
				<text transform="translate(5,15)">innermost</text>
				<text transform="translate(20,33)">five</text>
			</g>
		</g>
		<g transform="translate(273.18,3)">
			<adj:verticalTree gap="3" middleGap="10"/>
			<rect width="183" height="82" x="0.5" y="0.5">
				<adj:frameForParent inset="0.5"/>
			</rect>
			<text adj:id="int2" transform="translate(51,15)">intermediate two</text>
			<g adj:id="inn6" adj:treeParent="int2" transform="translate(10,28)">
				<adj:verticalList/>
				<rect width="75" height="20" x="0.5" y="0.5">
					<adj:frameForParent inset="0.5"/>
				</rect>
				<text transform="translate(5,15)">innermost six</text>
			</g>
			<g adj:treeParent="inn6" transform="translate(3,59)">
				<adj:verticalList/>
				<rect width="89" height="20" x="0.5" y="0.5">
					<adj:frameForParent inset="0.5"/>
				</rect>
				<text transform="translate(5,15)">innermost seven</text>
			</g>
			<g adj:id="inn8" adj:treeParent="int2" transform="translate(96,28)">
				<adj:verticalList/>
				<rect width="84" height="20" x="0.5" y="0.5">
					<adj:frameForParent inset="0.5"/>
				</rect>
				<text transform="translate(5,15)">innermost eight</text>
			</g>
			<g adj:treeParent="inn8" transform="translate(98,59)">
				<adj:verticalList/>
				<rect width="81" height="20" x="0.5" y="0.5">
					<adj:frameForParent inset="0.5"/>
				</rect>
				<text transform="translate(5,15)">innermost nine</text>
			</g>
		</g>
	</g>
</svg>
