<?xml version="1.0" encoding="UTF-8"?>
<svg xmlns="http://www.w3.org/2000/svg" xmlns:adj="http://www.nrvr.com/2012/adj" xmlns:xlink="http://www.w3.org/1999/xlink" onload="Adj.doDoc();" width="200" height="120">
	<script type="text/javascript" xlink:href="js/adj.js"/>
	<rect width="200" height="120" fill="linen"/>
	<g>
		<adj:circularList rAlign="inside" gap="2" explain="true"/>
		<circle r="20" fill="#000" transform="translate(47.448,54.662)"/>
		<rect width="3" height="3" fill="#222" transform="translate(78.354,53.162)"/>
		<rect width="6" height="6" fill="#444" transform="translate(65.975,78.656)"/>
		<rect width="9" height="9" fill="#666" transform="translate(34.793,85.891)"/>
		<rect width="12" height="12" fill="#888" transform="translate(6.518,65.483)"/>
		<rect width="15" height="15" fill="#aaa" transform="translate(3.107,29.42)"/>
		<rect width="18" height="18" fill="#bbb" transform="translate(28.877,3.728)"/>
		<rect width="21" height="21" fill="#ccc" transform="translate(65.088,8.875)"/>
		<circle adj:explanation="true" cx="47.448" cy="54.662" r="59.983" fill="white" fill-opacity="0.1" stroke="blue" stroke-width="1" stroke-opacity="0.2"/>
		<circle adj:explanation="true" cx="47.448" cy="54.662" r="28.284" fill="blue" fill-opacity="0.1" stroke="blue" stroke-width="1" stroke-opacity="0.1"/>
		<circle adj:explanation="true" cx="79.854" cy="54.662" r="2.121" fill="blue" fill-opacity="0.1" stroke="blue" stroke-width="1" stroke-opacity="0.1"/>
		<circle adj:explanation="true" cx="68.975" cy="81.656" r="4.243" fill="blue" fill-opacity="0.1" stroke="blue" stroke-width="1" stroke-opacity="0.1"/>
		<circle adj:explanation="true" cx="39.293" cy="90.391" r="6.364" fill="blue" fill-opacity="0.1" stroke="blue" stroke-width="1" stroke-opacity="0.1"/>
		<circle adj:explanation="true" cx="12.518" cy="71.483" r="8.485" fill="blue" fill-opacity="0.1" stroke="blue" stroke-width="1" stroke-opacity="0.1"/>
		<circle adj:explanation="true" cx="10.607" cy="36.92" r="10.607" fill="blue" fill-opacity="0.1" stroke="blue" stroke-width="1" stroke-opacity="0.1"/>
		<circle adj:explanation="true" cx="37.877" cy="12.728" r="12.728" fill="blue" fill-opacity="0.1" stroke="blue" stroke-width="1" stroke-opacity="0.1"/>
		<circle adj:explanation="true" cx="75.588" cy="19.375" r="14.849" fill="blue" fill-opacity="0.1" stroke="blue" stroke-width="1" stroke-opacity="0.1"/>
	</g>
</svg>
