<?xml version="1.0" encoding="UTF-8"?>
<svg xmlns="http://www.w3.org/2000/svg" xmlns:adj="http://www.nrvr.com/2012/adj" xmlns:xlink="http://www.w3.org/1999/xlink" onload="Adj.doDoc();" width="200" height="120">
	<script type="text/javascript" xlink:href="js/adj.js"/>
	<rect width="200" height="120" fill="linen"/>
	<rect x="5" y="5" width="30" height="20" stroke="black" stroke-width="1" fill="#000"/>
	<rect width="31" height="21" stroke="gray" stroke-width="1" fill="white" opacity="0.5" x="11" y="8">
		<adj:zoomFrames/>
	</rect>
	<rect width="33" height="23" stroke="gray" stroke-width="1" fill="white" opacity="0.5" x="18" y="11" adj:artifact="true"/>
	<rect width="35" height="25" stroke="gray" stroke-width="1" fill="white" opacity="0.5" x="26" y="15" adj:artifact="true"/>
	<rect width="37" height="27" stroke="gray" stroke-width="1" fill="white" opacity="0.5" x="34" y="19" adj:artifact="true"/>
	<rect width="39" height="29" stroke="gray" stroke-width="1" fill="white" opacity="0.5" x="42" y="22" adj:artifact="true"/>
	<rect width="40" height="30" stroke="gray" stroke-width="1" fill="white" opacity="0.5" x="50" y="26" adj:artifact="true"/>
	<rect width="42" height="32" stroke="gray" stroke-width="1" fill="white" opacity="0.5" x="58" y="30" adj:artifact="true"/>
	<rect width="44" height="34" stroke="gray" stroke-width="1" fill="white" opacity="0.5" x="66" y="33" adj:artifact="true"/>
	<rect width="46" height="36" stroke="gray" stroke-width="1" fill="white" opacity="0.5" x="74" y="37" adj:artifact="true"/>
	<rect width="48" height="38" stroke="gray" stroke-width="1" fill="white" opacity="0.5" x="82" y="40" adj:artifact="true"/>
	<rect width="50" height="40" stroke="gray" stroke-width="1" fill="white" opacity="0.5" x="90" y="44" adj:artifact="true"/>
	<rect width="51" height="41" stroke="gray" stroke-width="1" fill="white" opacity="0.5" x="98" y="48" adj:artifact="true"/>
	<rect width="53" height="43" stroke="gray" stroke-width="1" fill="white" opacity="0.5" x="106" y="51" adj:artifact="true"/>
	<rect width="55" height="45" stroke="gray" stroke-width="1" fill="white" opacity="0.5" x="114" y="55" adj:artifact="true"/>
	<rect width="57" height="47" stroke="gray" stroke-width="1" fill="white" opacity="0.5" x="122" y="59" adj:artifact="true"/>
	<rect width="59" height="49" stroke="gray" stroke-width="1" fill="white" opacity="0.5" x="129" y="62" adj:artifact="true"/>
	<rect x="135" y="65" width="60" height="50" stroke="black" stroke-width="1" fill="#888"/>
</svg>
