<?xml version="1.0" encoding="UTF-8"?>
<svg xmlns="http://www.w3.org/2000/svg" xmlns:adj="http://www.nrvr.com/2012/adj">
	<title>HTTP Protocol</title>
	<!-- Sample drawing idea and first version - Leo Baschy <srguiwiz12 AT nrvr DOT com> -->
	<style type="text/css"><![CDATA[
		svg {
			font-family: Arial, Helvetica, sans-serif;
			font-size: 9px;
		}
		.request {
			fill: lightgrey;
			stroke: grey;
			opacity: 0.9;
		}
		.arrow {
			stroke: grey;
			fill: none;
		}
		.server {
			fill: lightsteelblue;
			stroke: grey;
		}
		.client {
			fill: whitesmoke;
			stroke: grey;
		}
		]]></style>
	<defs>
		<marker id="arrowhead" class="arrow" markerUnits="strokeWidth" orient="auto" viewBox="-4 -2 5 4" refX="0" refY="0" markerWidth="5" markerHeight="4" stroke-width="1" fill="none">
			<path d="M -3 1 L 0 0 L -3 -1"/>
		</marker>
	</defs>
	<g>
		<adj:horizontalList makeGrid="true" hAlign="left" vAlign="middle" maxPerRow="1" gap="0"/>
		<text style="fill:gray">Sample drawing only, not a real system design.</text>
		<g>
			<adj:horizontalList gap="5" centerGap="40" maxPerRow="3" makeGrid="true" hAlign="center" vAlign="middle"/>
			<!-- adj:explain/ if you want to better understand -->
			<g>
				<adj:connection from="client1, 0, 0.7" to="server1, 1, 0.3"/>
				<path id="request1path" class="arrow" d="M0,0 q50,50 100,0" stroke-width="3" marker-end="url(#arrowhead)"/>
				<g>
					<adj:rider adjust="near" gap="20" pin="1, 1"/>
					<text>HTTP Request</text>
				</g>
			</g>
			<g>
				<adj:connection from="server1, 1, 0.7" to="client2, 0, 0.3"/>
				<path id="response1path" class="arrow" d="M0,0 q50,50 100,0" stroke-width="3" marker-end="url(#arrowhead)"/>
				<g>
					<adj:rider adjust="near" gap="20" pin="1, 0"/>
					<text>HTTP Response</text>
				</g>
			</g>
			<g>
		</g>
			<g>
		</g>
			<g id="client1">
				<adj:verticalList gap="5"/>
				<rect class="client" width="36" height="20" stroke-width="2" x="1" y="1">
					<adj:frameForParent inset="1"/>
				</rect>
				<text>Client</text>
			</g>
			<g>
		</g>
			<g id="request1">
				<adj:verticalList gap="5" middleGap="0"/>
				<rect class="request" width="401" height="116" rx="3" ry="3" stroke-width="2" x="1" y="1">
					<adj:frameForParent inset="1"/>
				</rect>
				<g>
					<adj:horizontalList gap="3" bottomGap="0"/>
					<text>GET</text>
					<text>/</text>
					<text>HTTP/1.1</text>
				</g>
				<g>
					<adj:horizontalList gap="3" maxPerRow="2" makeGrid="true"/>
					<text>Host:</text>
					<text>www.example.com</text>
					<text>User-Agent:</text>
					<text>Mozilla/5.0 (Windows NT 5.1; rv:10.0.2) Gecko/20100101 Firefox/10.0.2</text>
					<text>Accept:</text>
					<text>text/html,application/xhtml+xml,application/xml;q=0.9,*/*;q=0.8</text>
					<text>Accept-Language:</text>
					<text>en-us,en;q=0.5</text>
					<text>Accept-Encoding:</text>
					<text>gzip, deflate</text>
					<text>Connection:</text>
					<text>keep-alive</text>
				</g>
			</g>
			<g>
		</g>
			<g id="server1">
				<adj:verticalList gap="5"/>
				<rect class="server" width="41" height="20" stroke-width="2" x="1" y="1">
					<adj:frameForParent inset="1"/>
				</rect>
				<text>Server</text>
			</g>
			<g>
		</g>
			<g>
		</g>
			<g>
		</g>
			<g id="response1">
				<adj:verticalList gap="5" middleGap="0"/>
				<rect class="request" width="236" height="357" rx="3" ry="3" stroke-width="2" x="1" y="1">
					<adj:frameForParent inset="1"/>
				</rect>
				<g>
					<adj:horizontalList gap="3" bottomGap="0"/>
					<text>HTTP/1.1</text>
					<text>200</text>
					<text>OK</text>
				</g>
				<g>
					<adj:horizontalList gap="3" bottomGap="0" maxPerRow="2" makeGrid="true"/>
					<text>Date:</text>
					<text>Sun, 26 Feb 2012 19:46:42 GMT</text>
					<text>Server:</text>
					<text>Apache/2</text>
					<text>Last-Modified:</text>
					<text>Thu, 23 Feb 2012 19:43:58 GMT</text>
					<text>Accept-Ranges:</text>
					<text>bytes</text>
					<text>Content-Length:</text>
					<text>64518</text>
					<text>Cache-Control:</text>
					<text>max-age=1200</text>
					<text>Connection:</text>
					<text>close</text>
					<text>Content-Type:</text>
					<text>text/html; charset=utf-8</text>
					<text> </text>
				</g>
				<g>
					<adj:textBreaks/>
					<adj:verticalList gap="3"/>
					<text>&lt;!DOCTYPE html&gt;</text>
					<text>&lt;html&gt;</text>
					<text>&lt;head&gt;</text>
					<text>&lt;title&gt;For Example A Dog&lt;/title&gt;</text>
					<text>…</text>
					<g id="dog">
						<g transform="scale(0.5)">
							<path d="m182,220l13,-57c12.33333,-17.66667 26.66667,-29.33333 46,-29c35.33334,6.33333 31.66666,28.66667 55,28l67,-4l67,-9l36,28l-12,65l-97,-6l-69,9l-88,12c-13,-0.33331 -21,-7.66669 -18,-37z" stroke-width="5" stroke="#000000" fill="#C08040"/>
							<path d="m193,243l-11,40l0,38l-26,-1l-1,16l43,1l6,-51l19,-50" stroke-width="5" stroke="#000000" fill="#C08040"/>
							<path d="m234,249l-8,39l6,33l-21,3l3,13l38,-8l-12,-42l16,-48" stroke-width="5" stroke="#000000" fill="#C08040"/>
							<path d="m383,237l-12,38l6,31l-26,3l5,14l36,-8l-4,-43l13,-38" stroke-width="5" stroke="#000000" fill="#C08040"/>
							<path d="m429,237l-13,33l5,28l-20,5l5,14l35,-9l-7,-38l12,-39" stroke-width="5" stroke="#000000" fill="#C08040"/>
							<path d="m443,171l40,-14l36,28l45,-5l-44,31l-39,-35l-33,8" stroke-width="5" stroke="#000000" fill="#C08040"/>
							<path d="m215,148l-26,-47l-26,2l-10,24l-33,21l5,27l37,-14l35,31" stroke-width="5" stroke="#000000" fill="#C08040"/>
							<ellipse ry="6.5" rx="4" cy="122.5" cx="172" stroke-width="5" stroke="#000000" fill="#FFFF00"/>
						</g>
					</g>
				</g>
			</g>
			<g id="client2">
				<adj:verticalList gap="5"/>
				<rect class="client" width="36" height="20" stroke-width="2" x="1" y="1">
					<adj:frameForParent inset="1"/>
				</rect>
				<text>Client</text>
			</g>
		</g>
	</g>
</svg>
