<?xml version="1.0" encoding="UTF-8"?>
<svg xmlns="http://www.w3.org/2000/svg" xmlns:adj="http://www.nrvr.com/2012/adj" xmlns:xlink="http://www.w3.org/1999/xlink" onload="Adj.doSvg();" width="200" height="140">
	<script type="text/javascript" xlink:href="../js/adj.js"/>
	<rect width="200" height="140" fill="linen"/>
	<g>
		<adj:skimpyList/>
		<g transform="translate(3,3)">
			<rect width="70" height="100" stroke="black" stroke-width="1" fill="darkgrey"/>
			<g adj:id="lockThis">
				<adj:tilt alpha="0"/>
				<rect width="70" height="100" stroke="dimgrey" stroke-width="1" fill="lightgrey"/>
				<g adj:id="lockIt" transform="translate(30,75)">
					<adj:floater at="45,50"/>
					<adj:toggleButton/>
					<path adj:alternativeValue="lock" title="click to flip" d="M0,0 l0,-30 30,0 0,30 z M5,-30 l0,-10 q0,-10 10,-10 10,0 10,10 l0,10 -3,0 0,-10 q0,-7 -7,-7 -7,0 -7,7 l0,10 z" fill="darkgrey" stroke="black" style="cursor: pointer;"/>
					<path adj:alternativeValue="unlock" title="click to flip" d="M0,0 l0,-30 30,0 0,30 z M22,-30 l0,-10 q0,-10 10,-10 10,0 10,10 l0,10 -3,0 0,-10 q0,-7 -7,-7 -7,0 -7,7 l0,10 z" fill="darkgrey" stroke="black" style="cursor: pointer;" display="none"/>
				</g>
			</g>
		</g>
	</g>
	<script><![CDATA[
Adj.getElementById("lockIt").addEventListener("change", function (event) {
	var newToggle = event.detail.value;
	// Internet Explorer 11 could not
	//var alphaAttributesSnapshot = document.evaluate("//@alpha",document,null,XPathResult.ORDERED_NODE_SNAPSHOT_TYPE,null);
	//for (var i = 0; i < alphaAttributesSnapshot.snapshotLength; i++) {
	//	alphaAttributesSnapshot.snapshotItem(i).value = newToggle === "lock" ? "0" : "15";
	//}
	Adj.getElementById("lockThis").firstElementChild.setAttribute("alpha", newToggle === "lock" ? "0" : "15");
	Adj.doSvg();
});
	]]></script>
</svg>
