<?xml version="1.0" encoding="UTF-8"?>
<svg xmlns="http://www.w3.org/2000/svg" xmlns:adj="http://www.nrvr.com/2012/adj" xmlns:xlink="http://www.w3.org/1999/xlink" onload="Adj.doSvg();" width="200" height="80">
	<script type="text/javascript" xlink:href="../js/adj.js"/>
	<rect width="200" height="80" fill="linen"/>
	<rect adj:id="one" x="5" y="5" width="40" height="30" fill="#444"/>
	<rect adj:id="other" x="145" y="35" width="40" height="30" fill="#aaa"/>
	<path d="M45,20 q54.31,0.633 100,30 " stroke="none" fill="none" adj:d="M15,50 q40,-15 80,0">
		<adj:connection from="one % 1, 0.5" to="other % 0, 0.5"/>
	</path>
	<path d="M54.941,25.116 l-5.058,4.941 l-14.999,-0.175 l10.116,-9.883 l-9.883,-10.116 l14.999,0.175 l4.941,5.058 L55.058,15.117 Q100.886,15.888 139.291,40.387 L139.291,40.387 l2.703,-4.206 l11.418,19.226 l-22.231,-2.402 l2.703,-4.206 L133.884,48.799 Q97.734,25.378 54.941,25.116 " adj:d="M50,60 l-5,5 ,-15,0 10,-10 ,-10,-10 15,0 5,5 0,0 30,0 0,0 0,-5 20,10 ,-20,10 0,-5 0,0 ,-30,0 z" stroke="black" stroke-width="1" fill="white">
		<adj:pathArrow setback="10" explain="true"/>
	</path>
	<g adj:explanation="true">
		<circle adj:explanation="true" cx="54.941" cy="25.116" r="3" fill="green" fill-opacity="0.2" stroke="none"/>
		<circle adj:explanation="true" cx="55.058" cy="15.117" r="3" fill="blue" fill-opacity="0.2" stroke="none"/>
		<circle adj:explanation="true" cx="139.291" cy="40.387" r="3" fill="blue" fill-opacity="0.2" stroke="none"/>
		<circle adj:explanation="true" cx="133.884" cy="48.799" r="3" fill="red" fill-opacity="0.2" stroke="none"/>
	</g>
</svg>
